<svg width="935" height="380" viewBox="0 0 935 380" fill="none" xmlns="http://www.w3.org/2000/svg">
<path d="M89.7891 0.335938H92.7188C115.635 0.335938 135.753 4.3724 153.07 12.4453C170.388 20.388 184.841 31.1953 196.43 44.8672C208.148 58.4089 216.938 73.6432 222.797 90.5703C228.786 107.367 231.781 124.555 231.781 142.133C231.781 168.956 225.727 192.849 213.617 213.812C201.638 234.776 183.865 251.247 160.297 263.227C136.859 275.206 107.953 281.195 73.5781 281.195H64.3984L19.8672 280.805C14.6589 280.674 10.1016 278.656 6.19531 274.75C2.41927 270.844 0.53125 266.156 0.53125 260.688L1.89844 21.0391C1.89844 15.8307 3.78646 11.3385 7.5625 7.5625C11.3385 3.65625 15.8307 1.63802 21.0391 1.50781L89.7891 0.335938ZM197.016 140.961C197.016 116.742 191.872 97.2109 181.586 82.3672C171.299 67.5234 156.846 56.7161 138.227 49.9453C119.607 43.0443 97.7318 39.5938 72.6016 39.5938C67.263 39.5938 61.9245 39.6589 56.5859 39.7891C51.3776 39.9193 46.1042 40.1146 40.7656 40.375L39.5938 241.352L64.7891 241.742C90.9609 241.742 113.943 238.617 133.734 232.367C153.656 225.987 169.151 215.44 180.219 200.727C191.417 186.013 197.016 166.091 197.016 140.961ZM368.109 67.1328C383.083 67.1328 397.016 69.9974 409.906 75.7266C422.927 81.4557 434.32 89.3984 444.086 99.5547C453.852 109.711 461.469 121.365 466.938 134.516C472.536 147.667 475.336 161.664 475.336 176.508C475.336 191.091 472.536 204.958 466.938 218.109C461.339 231.13 453.591 242.654 443.695 252.68C433.93 262.576 422.536 270.388 409.516 276.117C396.625 281.846 382.823 284.711 368.109 284.711C353.526 284.711 339.724 281.911 326.703 276.312C313.812 270.714 302.419 262.966 292.523 253.07C282.758 243.174 275.076 231.716 269.477 218.695C263.878 205.544 261.078 191.482 261.078 176.508C261.078 161.664 263.878 147.667 269.477 134.516C275.076 121.365 282.758 109.776 292.523 99.75C302.419 89.5938 313.812 81.651 326.703 75.9219C339.594 70.0625 353.396 67.1328 368.109 67.1328ZM300.531 176.898C300.531 189.529 303.591 201.052 309.711 211.469C315.961 221.755 324.229 229.958 334.516 236.078C344.802 242.198 356.065 245.258 368.305 245.258C380.805 245.258 392.133 242.133 402.289 235.883C412.576 229.503 420.714 221.104 426.703 210.688C432.823 200.271 435.883 188.878 435.883 176.508C435.883 163.878 432.888 152.289 426.898 141.742C420.909 131.065 412.771 122.536 402.484 116.156C392.328 109.776 380.87 106.586 368.109 106.586C355.219 106.586 343.695 109.841 333.539 116.352C323.383 122.732 315.31 131.26 309.32 141.938C303.461 152.484 300.531 164.138 300.531 176.898ZM601.703 67.1328C616.677 67.1328 630.609 69.9974 643.5 75.7266C656.521 81.4557 667.914 89.3984 677.68 99.5547C687.445 109.711 695.062 121.365 700.531 134.516C706.13 147.667 708.93 161.664 708.93 176.508C708.93 191.091 706.13 204.958 700.531 218.109C694.932 231.13 687.185 242.654 677.289 252.68C667.523 262.576 656.13 270.388 643.109 276.117C630.219 281.846 616.417 284.711 601.703 284.711C587.12 284.711 573.318 281.911 560.297 276.312C547.406 270.714 536.013 262.966 526.117 253.07C516.352 243.174 508.669 231.716 503.07 218.695C497.471 205.544 494.672 191.482 494.672 176.508C494.672 161.664 497.471 147.667 503.07 134.516C508.669 121.365 516.352 109.776 526.117 99.75C536.013 89.5938 547.406 81.651 560.297 75.9219C573.188 70.0625 586.99 67.1328 601.703 67.1328ZM534.125 176.898C534.125 189.529 537.185 201.052 543.305 211.469C549.555 221.755 557.823 229.958 568.109 236.078C578.396 242.198 589.659 245.258 601.898 245.258C614.398 245.258 625.727 242.133 635.883 235.883C646.169 229.503 654.307 221.104 660.297 210.688C666.417 200.271 669.477 188.878 669.477 176.508C669.477 163.878 666.482 152.289 660.492 141.742C654.503 131.065 646.365 122.536 636.078 116.156C625.922 109.776 614.464 106.586 601.703 106.586C588.812 106.586 577.289 109.841 567.133 116.352C556.977 122.732 548.904 131.26 542.914 141.938C537.055 152.484 534.125 164.138 534.125 176.898ZM914.984 66.3516C920.323 66.3516 924.88 68.3047 928.656 72.2109C932.562 75.987 934.516 80.5443 934.516 85.8828V86.2734L933.148 272.797C933.018 287.38 930.023 301.117 924.164 314.008C918.435 326.898 910.492 338.292 900.336 348.188C890.18 358.083 878.526 365.831 865.375 371.43C852.354 377.029 838.487 379.828 823.773 379.828C807.237 379.828 791.417 376.182 776.312 368.891C761.339 361.729 748.643 351.638 738.227 338.617C735.232 334.841 733.734 330.674 733.734 326.117C733.734 320.779 735.622 316.156 739.398 312.25C743.305 308.474 747.927 306.586 753.266 306.586C755.87 306.586 758.669 307.302 761.664 308.734C764.789 310.167 767.198 311.99 768.891 314.203C775.401 322.276 783.604 328.721 793.5 333.539C803.526 338.357 813.682 340.766 823.969 340.766C836.599 340.766 848.188 337.641 858.734 331.391C869.411 325.141 877.94 316.807 884.32 306.391C890.831 295.974 894.086 284.581 894.086 272.211V253.07C886.404 265.049 877.094 273.318 866.156 277.875C855.349 282.302 844.281 284.516 832.953 284.516C818.76 284.516 805.544 281.456 793.305 275.336C781.195 269.216 770.648 260.948 761.664 250.531C752.68 240.115 745.648 228.331 740.57 215.18C735.622 201.898 733.148 188.227 733.148 174.164C733.148 160.102 735.622 146.69 740.57 133.93C745.648 121.039 752.68 109.581 761.664 99.5547C770.648 89.5286 781.195 81.5859 793.305 75.7266C805.414 69.8672 818.63 66.9375 832.953 66.9375C845.323 66.9375 856.911 69.8021 867.719 75.5312C878.526 81.2604 887.706 89.9844 895.258 101.703L898.188 86.0781C899.229 80.7396 900.922 76.1172 903.266 72.2109C905.609 68.3047 909.516 66.3516 914.984 66.3516ZM893.695 174.359C893.695 162.51 891.091 151.443 885.883 141.156C880.674 130.74 873.513 122.276 864.398 115.766C855.414 109.255 845.128 106 833.539 106C821.69 106 811.143 109.255 801.898 115.766C792.784 122.146 785.557 130.544 780.219 140.961C775.01 151.247 772.406 162.315 772.406 174.164C772.406 185.883 775.01 197.211 780.219 208.148C785.427 218.956 792.589 227.875 801.703 234.906C810.818 241.938 821.234 245.453 832.953 245.453C844.542 245.453 854.893 242.003 864.008 235.102C873.253 228.201 880.479 219.346 885.688 208.539C891.026 197.602 893.695 186.208 893.695 174.359Z" fill="black"/>
</svg>
