<svg width="545" height="545" viewBox="0 0 545 545" fill="none" xmlns="http://www.w3.org/2000/svg">
<circle cx="272.5" cy="272.5" r="272.5" fill="black"/>
<circle cx="273" cy="273" r="200" fill="white"/>
<path d="M174.197 237.834H174.93C180.659 237.834 185.688 238.843 190.018 240.861C194.347 242.847 197.96 245.549 200.857 248.967C203.787 252.352 205.984 256.161 207.449 260.393C208.947 264.592 209.695 268.889 209.695 273.283C209.695 279.989 208.182 285.962 205.154 291.203C202.16 296.444 197.716 300.562 191.824 303.557C185.965 306.551 178.738 308.049 170.145 308.049H167.85L156.717 307.951C155.415 307.919 154.275 307.414 153.299 306.438C152.355 305.461 151.883 304.289 151.883 302.922L152.225 243.01C152.225 241.708 152.697 240.585 153.641 239.641C154.585 238.664 155.708 238.16 157.01 238.127L174.197 237.834ZM201.004 272.99C201.004 266.936 199.718 262.053 197.146 258.342C194.575 254.631 190.962 251.929 186.307 250.236C181.652 248.511 176.183 247.648 169.9 247.648C168.566 247.648 167.231 247.665 165.896 247.697C164.594 247.73 163.276 247.779 161.941 247.844L161.648 298.088L167.947 298.186C174.49 298.186 180.236 297.404 185.184 295.842C190.164 294.247 194.038 291.61 196.805 287.932C199.604 284.253 201.004 279.273 201.004 272.99ZM243.777 254.533C247.521 254.533 251.004 255.249 254.227 256.682C257.482 258.114 260.33 260.1 262.771 262.639C265.213 265.178 267.117 268.091 268.484 271.379C269.884 274.667 270.584 278.166 270.584 281.877C270.584 285.523 269.884 288.99 268.484 292.277C267.085 295.533 265.148 298.413 262.674 300.92C260.232 303.394 257.384 305.347 254.129 306.779C250.906 308.212 247.456 308.928 243.777 308.928C240.132 308.928 236.681 308.228 233.426 306.828C230.203 305.428 227.355 303.492 224.881 301.018C222.439 298.544 220.519 295.679 219.119 292.424C217.719 289.136 217.02 285.62 217.02 281.877C217.02 278.166 217.719 274.667 219.119 271.379C220.519 268.091 222.439 265.194 224.881 262.688C227.355 260.148 230.203 258.163 233.426 256.73C236.648 255.266 240.099 254.533 243.777 254.533ZM226.883 281.975C226.883 285.132 227.648 288.013 229.178 290.617C230.74 293.189 232.807 295.24 235.379 296.77C237.951 298.299 240.766 299.064 243.826 299.064C246.951 299.064 249.783 298.283 252.322 296.721C254.894 295.126 256.928 293.026 258.426 290.422C259.956 287.818 260.721 284.969 260.721 281.877C260.721 278.719 259.972 275.822 258.475 273.186C256.977 270.516 254.943 268.384 252.371 266.789C249.832 265.194 246.967 264.396 243.777 264.396C240.555 264.396 237.674 265.21 235.135 266.838C232.596 268.433 230.577 270.565 229.08 273.234C227.615 275.871 226.883 278.785 226.883 281.975ZM302.176 254.533C305.919 254.533 309.402 255.249 312.625 256.682C315.88 258.114 318.729 260.1 321.17 262.639C323.611 265.178 325.516 268.091 326.883 271.379C328.283 274.667 328.982 278.166 328.982 281.877C328.982 285.523 328.283 288.99 326.883 292.277C325.483 295.533 323.546 298.413 321.072 300.92C318.631 303.394 315.783 305.347 312.527 306.779C309.305 308.212 305.854 308.928 302.176 308.928C298.53 308.928 295.079 308.228 291.824 306.828C288.602 305.428 285.753 303.492 283.279 301.018C280.838 298.544 278.917 295.679 277.518 292.424C276.118 289.136 275.418 285.62 275.418 281.877C275.418 278.166 276.118 274.667 277.518 271.379C278.917 268.091 280.838 265.194 283.279 262.688C285.753 260.148 288.602 258.163 291.824 256.73C295.047 255.266 298.497 254.533 302.176 254.533ZM285.281 281.975C285.281 285.132 286.046 288.013 287.576 290.617C289.139 293.189 291.206 295.24 293.777 296.77C296.349 298.299 299.165 299.064 302.225 299.064C305.35 299.064 308.182 298.283 310.721 296.721C313.292 295.126 315.327 293.026 316.824 290.422C318.354 287.818 319.119 284.969 319.119 281.877C319.119 278.719 318.37 275.822 316.873 273.186C315.376 270.516 313.341 268.384 310.77 266.789C308.23 265.194 305.366 264.396 302.176 264.396C298.953 264.396 296.072 265.21 293.533 266.838C290.994 268.433 288.976 270.565 287.479 273.234C286.014 275.871 285.281 278.785 285.281 281.975ZM380.496 254.338C381.831 254.338 382.97 254.826 383.914 255.803C384.891 256.747 385.379 257.886 385.379 259.221V259.318L385.037 305.949C385.005 309.595 384.256 313.029 382.791 316.252C381.359 319.475 379.373 322.323 376.834 324.797C374.295 327.271 371.382 329.208 368.094 330.607C364.839 332.007 361.372 332.707 357.693 332.707C353.559 332.707 349.604 331.796 345.828 329.973C342.085 328.182 338.911 325.66 336.307 322.404C335.558 321.46 335.184 320.419 335.184 319.279C335.184 317.945 335.656 316.789 336.6 315.812C337.576 314.868 338.732 314.396 340.066 314.396C340.717 314.396 341.417 314.576 342.166 314.934C342.947 315.292 343.549 315.747 343.973 316.301C345.6 318.319 347.651 319.93 350.125 321.135C352.632 322.339 355.171 322.941 357.742 322.941C360.9 322.941 363.797 322.16 366.434 320.598C369.103 319.035 371.235 316.952 372.83 314.348C374.458 311.743 375.271 308.895 375.271 305.803V301.018C373.351 304.012 371.023 306.079 368.289 307.219C365.587 308.326 362.82 308.879 359.988 308.879C356.44 308.879 353.136 308.114 350.076 306.584C347.049 305.054 344.412 302.987 342.166 300.383C339.92 297.779 338.162 294.833 336.893 291.545C335.656 288.225 335.037 284.807 335.037 281.291C335.037 277.775 335.656 274.423 336.893 271.232C338.162 268.01 339.92 265.145 342.166 262.639C344.412 260.132 347.049 258.146 350.076 256.682C353.104 255.217 356.408 254.484 359.988 254.484C363.081 254.484 365.978 255.201 368.68 256.633C371.382 258.065 373.676 260.246 375.564 263.176L376.297 259.27C376.557 257.935 376.98 256.779 377.566 255.803C378.152 254.826 379.129 254.338 380.496 254.338ZM375.174 281.34C375.174 278.378 374.523 275.611 373.221 273.039C371.919 270.435 370.128 268.319 367.85 266.691C365.604 265.064 363.032 264.25 360.135 264.25C357.173 264.25 354.536 265.064 352.225 266.691C349.946 268.286 348.139 270.386 346.805 272.99C345.503 275.562 344.852 278.329 344.852 281.291C344.852 284.221 345.503 287.053 346.805 289.787C348.107 292.489 349.897 294.719 352.176 296.477C354.454 298.234 357.059 299.113 359.988 299.113C362.885 299.113 365.473 298.251 367.752 296.525C370.063 294.8 371.87 292.587 373.172 289.885C374.507 287.15 375.174 284.302 375.174 281.34Z" fill="black"/>
</svg>
